<svg xmlns="http://www.w3.org/2000/svg" viewBox="0 0 60 40">
  <!-- Shell -->
  <path d="M40,15 Q45,5 35,5 Q25,5 20,15 Q15,25 25,30 Q35,35 40,25 Q45,15 40,15" fill="#4CAF50" />
  <path d="M37,15 Q42,7 33,8 Q26,9 23,15 Q20,22 28,26 Q36,30 37,23 Q38,16 37,15" fill="#C8E6C9" />
  
  <!-- Body -->
  <path d="M20,15 Q10,15 5,25 Q5,30 10,30 L25,30 Q35,30 35,25 L35,20 Q30,15 20,15" fill="#795548" />
  
  <!-- Face -->
  <circle cx="7" cy="20" r="1" fill="black" />
  <circle cx="7" cy="20" r="0.5" fill="white" />
  <path d="M9,23 Q10,24 11,23" stroke="black" stroke-width="0.5" fill="none" />
  
  <!-- Muscle Decoration -->
  <path d="M15,20 Q15,18 20,18 Q25,18 25,20" stroke="#5D4037" stroke-width="1.5" fill="none" />
  <path d="M15,23 Q15,21 20,21 Q25,21 25,23" stroke="#5D4037" stroke-width="1.5" fill="none" />
  <path d="M15,26 Q15,24 20,24 Q25,24 25,26" stroke="#5D4037" stroke-width="1.5" fill="none" />
  
  <!-- Headband -->
  <path d="M2,18 Q5,15 12,18" stroke="#FF5722" stroke-width="1" fill="none" />
  <path d="M2,18 L12,18" stroke="#FF5722" stroke-width="2" />
</svg>
