<svg xmlns="http://www.w3.org/2000/svg" viewBox="0 0 400 300">
  <!-- Background - indoor renovation scene -->
  <rect width="400" height="300" fill="#E8F8F5"/>
  
  <!-- Wall background -->
  <rect width="400" height="240" fill="#D0ECE7"/>
  
  <!-- Floorboards -->
  <rect y="240" width="400" height="60" fill="#CBA372"/>
  <line x1="0" y1="250" x2="400" y2="250" stroke="#B08B5A" stroke-width="1"/>
  <line x1="0" y1="270" x2="400" y2="270" stroke="#B08B5A" stroke-width="1"/>
  <line x1="0" y1="290" x2="400" y2="290" stroke="#B08B5A" stroke-width="1"/>
  <line x1="50" y1="240" x2="50" y2="300" stroke="#B08B5A" stroke-width="1"/>
  <line x1="150" y1="240" x2="150" y2="300" stroke="#B08B5A" stroke-width="1"/>
  <line x1="250" y1="240" x2="250" y2="300" stroke="#B08B5A" stroke-width="1"/>
  <line x1="350" y1="240" x2="350" y2="300" stroke="#B08B5A" stroke-width="1"/>
  
  <!-- Paint bucket -->
  <path d="M330,240 L350,240 L345,200 L335,200 Z" fill="#D2B4DE" stroke="#A569BD" stroke-width="2"/>
  <path d="M330,200 L350,200" stroke="#A569BD" stroke-width="2"/>
  <path d="M335,190 C335,185 345,185 345,190" stroke="#A569BD" stroke-width="2" fill="none"/>
  
  <!-- Paintbrush -->
  <rect x="300" y="215" width="40" height="5" fill="#D2B4DE" stroke="#A569BD" stroke-width="1"/>
  <rect x="300" y="220" width="40" height="10" fill="#7D3C98" stroke="#A569BD" stroke-width="1"/>
  <rect x="260" y="217" width="40" height="7" fill="#A04000" stroke="#6E2C00" stroke-width="1"/>
  
  <!-- Snail body -->
  <path d="M50,230 C110,220 170,220 220,220 C270,220 300,230 300,230 L300,260 C240,255 180,255 120,255 C60,255 50,260 50,260 Z" 
        fill="#FDEBD0" stroke="#F39C12" stroke-width="2"/>
  
  <!-- Head bump with expression -->
  <path d="M50,230 C40,210 50,190 70,190 C90,190 100,210 90,230" 
        fill="#FDEBD0" stroke="#F39C12" stroke-width="2"/>
  
  <!-- Shell -->
  <circle cx="180" cy="170" r="70" fill="#E67E22" stroke="#A04000" stroke-width="3"/>
  
  <!-- Shell spiral pattern integrated with house features -->
  <ellipse cx="180" cy="170" rx="50" ry="40" fill="none" stroke="#A04000" stroke-width="3"/>
  <ellipse cx="180" cy="170" rx="35" ry="28" fill="none" stroke="#A04000" stroke-width="2.5"/>
  <ellipse cx="180" cy="170" rx="20" ry="16" fill="none" stroke="#A04000" stroke-width="2"/>
  
  <!-- Windows integrated into spiral pattern -->
  <rect x="200" y="150" width="15" height="15" fill="#AED6F1" stroke="#A04000" stroke-width="2"/>
  <line x1="200" y1="158" x2="215" y2="158" stroke="#A04000" stroke-width="1"/>
  <line x1="207" y1="150" x2="207" y2="165" stroke="#A04000" stroke-width="1"/>
  
  <rect x="230" y="180" width="15" height="15" fill="#AED6F1" stroke="#A04000" stroke-width="2"/>
  <line x1="230" y1="188" x2="245" y2="188" stroke="#A04000" stroke-width="1"/>
  <line x1="237" y1="180" x2="237" y2="195" stroke="#A04000" stroke-width="1"/>
  
  <!-- Door integrated into spiral pattern -->
  <rect x="170" y="195" width="15" height="25" fill="#8E44AD" stroke="#A04000" stroke-width="2"/>
  <circle cx="173" cy="207" r="2" fill="#F1C40F"/>
  
  <!-- Small door/window at top of shell -->
  <rect x="240" y="130" width="10" height="20" fill="#6E2C00" stroke="#A04000" stroke-width="2"/>
  
  <!-- Tool belt on snail -->
  <path d="M130,235 C160,232 190,232 220,235" stroke="#6E2C00" stroke-width="5" fill="none"/>
  <rect x="165" y="232" width="10" height="7" fill="#F1C40F" stroke="#6E2C00" stroke-width="1"/>
  <rect x="180" y="232" width="10" height="7" fill="#F1C40F" stroke="#6E2C00" stroke-width="1"/>
  
  <!-- Hard hat -->
  <path d="M55,135 C55,130 65,125 75,125 C85,125 95,130 95,135" fill="#F1C40F" stroke="#E67E22" stroke-width="2"/>
  <path d="M50,140 C50,135 55,135 55,135 L95,135 C95,135 100,135 100,140 L97,145 L53,145 Z" fill="#F1C40F" stroke="#E67E22" stroke-width="2"/>
  
  <!-- Eye stalks -->
  <line x1="60" y1="190" x2="60" y2="155" stroke="#F39C12" stroke-width="4" stroke-linecap="round"/>
  <line x1="80" y1="190" x2="80" y2="155" stroke="#F39C12" stroke-width="4" stroke-linecap="round"/>
  
  <!-- Eyes - focused, determined -->
  <circle cx="60" cy="155" r="8" fill="white" stroke="#000" stroke-width="1"/>
  <circle cx="80" cy="155" r="8" fill="white" stroke="#000" stroke-width="1"/>
  <circle cx="62" cy="155" r="4" fill="black"/>
  <circle cx="82" cy="155" r="4" fill="black"/>
  
  <!-- Proud smile -->
  <path d="M60,215 C65,220 75,220 80,215" fill="none" stroke="#000" stroke-width="2" stroke-linecap="round"/>
</svg>