<svg xmlns="http://www.w3.org/2000/svg" viewBox="0 0 400 300">
  <!-- Background - brown dirt road -->
  <rect width="400" height="300" fill="#B5651D"/>
  
  <!-- Backdrop hills -->
  <ellipse cx="100" cy="100" rx="200" ry="80" fill="#A27E45"/>
  <ellipse cx="300" cy="80" rx="150" ry="60" fill="#8C6D3C"/>
  
  <!-- White slime trail zigzag -->
  <path d="M50,230 L100,200 L150,230 L200,200 L250,230 L300,200 L350,230 L400,200" 
        fill="none" stroke="white" stroke-width="15" stroke-linecap="round" stroke-linejoin="round"/>
  
  <!-- Snail body -->
  <path d="M200,220 C260,210 310,210 350,220 L350,250 C290,245 240,245 200,250 Z" 
        fill="#FDEBD0" stroke="#F39C12" stroke-width="2"/>
  
  <!-- Head bump with cute expression -->
  <path d="M200,220 C190,200 200,180 220,180 C240,180 250,200 240,220" 
        fill="#FDEBD0" stroke="#F39C12" stroke-width="2"/>
  
  <!-- Shell -->
  <circle cx="300" cy="180" r="60" fill="#E67E22" stroke="#A04000" stroke-width="3"/>
  
  <!-- Shell spiral pattern - properly centered -->
  <ellipse cx="300" cy="180" rx="45" ry="36" fill="none" stroke="#A04000" stroke-width="3"/>
  <ellipse cx="300" cy="180" rx="32" ry="25" fill="none" stroke="#A04000" stroke-width="2.5"/>
  <ellipse cx="300" cy="180" rx="20" ry="16" fill="none" stroke="#A04000" stroke-width="2"/>
  <ellipse cx="300" cy="180" rx="10" ry="8" fill="none" stroke="#A04000" stroke-width="1.5"/>
  
  <!-- Eye stalks -->
  <line x1="210" y1="185" x2="200" y2="160" stroke="#F39C12" stroke-width="4" stroke-linecap="round"/>
  <line x1="230" y1="185" x2="240" y2="160" stroke="#F39C12" stroke-width="4" stroke-linecap="round"/>
  
  <!-- Eyes -->
  <circle cx="200" cy="160" r="8" fill="white" stroke="#000" stroke-width="1.5"/>
  <circle cx="240" cy="160" r="8" fill="white" stroke="#000" stroke-width="1.5"/>
  
  <!-- Pupils as oval dots -->
  <ellipse cx="200" cy="160" rx="3" ry="4" fill="black"/>
  <ellipse cx="240" cy="160" rx="3" ry="4" fill="black"/>
  
  <!-- Cute smile -->
  <path d="M210,210 C215,215 225,215 230,210" fill="none" stroke="#000" stroke-width="2" stroke-linecap="round"/>
  
  <!-- Small slime puddle under snail -->
  <ellipse cx="250" cy="250" rx="70" ry="10" fill="white" fill-opacity="0.5"/>
</svg>