<svg xmlns="http://www.w3.org/2000/svg" viewBox="0 0 400 300">
  <!-- Background - racing theme -->
  <rect width="400" height="300" fill="#7BD5F5"/>
  
  <!-- Clouds -->
  <ellipse cx="50" cy="60" rx="30" ry="20" fill="#FFF9E3"/>
  <ellipse cx="70" cy="50" rx="25" ry="22" fill="#FFF9E3"/>
  <ellipse cx="90" cy="60" rx="30" ry="18" fill="#FFF9E3"/>
  
  <ellipse cx="300" cy="80" rx="40" ry="25" fill="#FFF9E3"/>
  <ellipse cx="330" cy="70" rx="35" ry="28" fill="#FFF9E3"/>
  <ellipse cx="360" cy="85" rx="35" ry="20" fill="#FFF9E3"/>
  
  <!-- Ground -->
  <path d="M0,250 C100,235 300,270 400,240 L400,300 L0,300 Z" fill="#F2D16B"/>
  
  <!-- Speed lines -->
  <path d="M290,160 L320,155" stroke="#000" stroke-width="3" stroke-linecap="round"/>
  <path d="M285,180 L315,175" stroke="#000" stroke-width="3" stroke-linecap="round"/>
  <path d="M280,200 L310,195" stroke="#000" stroke-width="3" stroke-linecap="round"/>
  
  <!-- Snail body -->
  <path d="M50,230 C110,220 170,220 230,220 C290,220 320,230 320,230 L320,260 C260,255 200,255 140,255 C80,255 50,260 50,260 Z" 
        fill="#F0D6AC" stroke="#DB9B48" stroke-width="2"/>
  
  <!-- Head bump with expression -->
  <path d="M50,230 C40,210 50,190 70,190 C90,190 100,210 90,230" 
        fill="#F0D6AC" stroke="#DB9B48" stroke-width="2"/>
  
  <!-- Shell -->
  <circle cx="180" cy="180" r="70" fill="#E67E22" stroke="#A04000" stroke-width="3"/>
  
  <!-- Shell spiral pattern - properly centered -->
  <ellipse cx="180" cy="180" rx="50" ry="40" fill="none" stroke="#A04000" stroke-width="3"/>
  <ellipse cx="180" cy="180" rx="35" ry="28" fill="none" stroke="#A04000" stroke-width="2.5"/>
  <ellipse cx="180" cy="180" rx="20" ry="16" fill="none" stroke="#A04000" stroke-width="2"/>
  <ellipse cx="180" cy="180" rx="10" ry="8" fill="none" stroke="#A04000" stroke-width="1.5"/>
  
  <!-- Racing lines on shell -->
  <path d="M180,110 L180,250" stroke="#A04000" stroke-width="3" stroke-dasharray="8,4"/>
  <path d="M110,180 L250,180" stroke="#A04000" stroke-width="3" stroke-dasharray="8,4"/>
  
  <!-- Eye stalks -->
  <line x1="60" y1="190" x2="60" y2="155" stroke="#DB9B48" stroke-width="4" stroke-linecap="round"/>
  <line x1="80" y1="190" x2="80" y2="155" stroke="#DB9B48" stroke-width="4" stroke-linecap="round"/>
  
  <!-- Eyes - wide, panicked -->
  <circle cx="60" cy="150" r="12" fill="white" stroke="#000" stroke-width="2"/>
  <circle cx="80" cy="150" r="12" fill="white" stroke="#000" stroke-width="2"/>
  <circle cx="60" cy="150" r="6" fill="black"/>
  <circle cx="80" cy="150" r="6" fill="black"/>
  
  <!-- Eyebrows showing panic -->
  <path d="M50,140 L65,135" stroke="black" stroke-width="2" stroke-linecap="round"/>
  <path d="M75,135 L90,140" stroke="black" stroke-width="2" stroke-linecap="round"/>
  
  <!-- Shocked mouth -->
  <circle cx="70" cy="210" r="15" fill="#EC7063" stroke="#A04000" stroke-width="2"/>
  
  <!-- Sweat drops -->
  <path d="M40,180 C35,175 35,165 40,160" stroke="#7BD5F5" stroke-width="3" fill="#7BD5F5"/>
  <path d="M100,175 C105,170 105,160 100,155" stroke="#7BD5F5" stroke-width="3" fill="#7BD5F5"/>
</svg>