<svg xmlns="http://www.w3.org/2000/svg" viewBox="0 0 100 100">
  <g fill="#00796B">
    <path d="M10 10C15 5 25 5 30 10C35 15 35 25 30 30C25 35 15 35 10 30C5 25 5 15 10 10Z" opacity="0.2" />
    <path d="M60 10C65 5 75 5 80 10C85 15 85 25 80 30C75 35 65 35 60 30C55 25 55 15 60 10Z" opacity="0.2" />
    <path d="M10 60C15 55 25 55 30 60C35 65 35 75 30 80C25 85 15 85 10 80C5 75 5 65 10 60Z" opacity="0.2" />
    <path d="M60 60C65 55 75 55 80 60C85 65 85 75 80 80C75 85 65 85 60 80C55 75 55 65 60 60Z" opacity="0.2" />
    <path d="M35 35C40 30 50 30 55 35C60 40 60 50 55 55C50 60 40 60 35 55C30 50 30 40 35 35Z" opacity="0.2" />
  </g>
</svg>
