<svg xmlns="http://www.w3.org/2000/svg" viewBox="0 0 60 40">
  <!-- Shell -->
  <path d="M40,15 Q45,5 35,5 Q25,5 20,15 Q15,25 25,30 Q35,35 40,25 Q45,15 40,15" fill="#F44336" />
  <path d="M37,15 Q42,7 33,8 Q26,9 23,15 Q20,22 28,26 Q36,30 37,23 Q38,16 37,15" fill="#FFCDD2" />
  
  <!-- Body -->
  <path d="M20,15 Q10,15 5,25 Q5,30 10,30 L25,30 Q35,30 35,25 L35,20 Q30,15 20,15" fill="#8D6E63" />
  
  <!-- Face -->
  <circle cx="7" cy="20" r="1" fill="black" />
  <circle cx="7" cy="20" r="0.5" fill="white" />
  <path d="M9,23 Q10,24 11,23" stroke="black" stroke-width="0.5" fill="none" />
  
  <!-- Racing accessories -->
  <path d="M3,17 L10,17" stroke="black" stroke-width="1" />
  <path d="M3,16 Q3,15 4,15 L9,15 Q10,15 10,16 L10,18 Q10,19 9,19 L4,19 Q3,19 3,18 Z" fill="#FFD54F" stroke="black" stroke-width="0.5" />
  <path d="M45,14 L48,10" stroke="#FF5722" stroke-width="1" />
  <path d="M45,16 L50,15" stroke="#FF5722" stroke-width="1" />
  <path d="M44,18 L48,20" stroke="#FF5722" stroke-width="1" />
</svg>
