<svg xmlns="http://www.w3.org/2000/svg" viewBox="0 0 60 40">
  <!-- Shell -->
  <path d="M40,15 Q45,5 35,5 Q25,5 20,15 Q15,25 25,30 Q35,35 40,25 Q45,15 40,15" fill="#9C27B0" />
  <path d="M37,15 Q42,7 33,8 Q26,9 23,15 Q20,22 28,26 Q36,30 37,23 Q38,16 37,15" fill="#E1BEE7" />
  <path d="M33,10 L35,20" stroke="white" stroke-width="0.5" fill="none" />
  <path d="M31,10 L28,22" stroke="white" stroke-width="0.5" fill="none" />
  
  <!-- Body -->
  <path d="M20,15 Q10,15 5,25 Q5,30 10,30 L25,30 Q35,30 35,25 L35,20 Q30,15 20,15" fill="#9E9E9E" />
  
  <!-- Face -->
  <circle cx="7" cy="20" r="1" fill="black" />
  <circle cx="7" cy="20" r="0.5" fill="white" />
  <path d="M9,23 Q10,24 11,23" stroke="black" stroke-width="0.5" fill="none" />
  
  <!-- Shell decoration -->
  <path d="M25,15 L30,12" stroke="#BA68C8" stroke-width="2" />
  <path d="M32,12 L35,15" stroke="#BA68C8" stroke-width="2" />
  <circle cx="30" cy="15" r="3" fill="#CE93D8" />
  <circle cx="30" cy="15" r="1" fill="#7B1FA2" />
</svg>
